
<svg width="18px" height="16px" viewBox="0 0 18 16" version="1.1" xmlns="http://www.w3.org/2000/svg" xmlns:xlink="http://www.w3.org/1999/xlink">
    <!-- Generator: Sketch 51.1 (57501) - http://www.bohemiancoding.com/sketch -->
    <desc>Created with Sketch.</desc>
    <defs></defs>
    <g id="Page-1" stroke="none" stroke-width="1" fill="red" fill-rule="evenodd">
        <g id="Home.-Dropdowns" transform="translate(-876.000000, -625.000000)" stroke="#FFFFFF">
            <g id="Group-6" transform="translate(506.000000, 0.000000)">
                <g id="Movie-Metadata" transform="translate(141.000000, 478.000000)">
                    <g id="Group-4" transform="translate(214.000000, 139.000000)">
                        <path d="M23.9333953,23 C23.8012557,23 23.6748182,22.9476207 23.5818495,22.8551724 L17.3117891,16.6172069 C15.562737,14.8775862 15.562737,12.0474138 17.3117891,10.3077931 C18.1591682,9.46441379 19.2864453,9 20.4858661,9 C21.6847911,9 22.8125641,9.46441379 23.6596953,10.3077931 C23.7551432,10.4026552 23.8461286,10.5025862 23.9333953,10.6075862 C24.020662,10.5025862 24.1116474,10.4026552 24.2065995,10.3077931 C25.0542266,9.46441379 26.1815036,9 27.3809245,9 C28.5798495,9 29.7071266,9.46441379 30.5550016,10.3077931 C32.3040536,12.0474138 32.3040536,14.8775862 30.5550016,16.6172069 L24.2844453,22.8551724 C24.1914766,22.9476207 24.0650391,23 23.9333953,23" id="Fill-1"></path>
                    </g>
                </g>
            </g>
        </g>
    </g>
</svg>