<svg xmlns="http://www.w3.org/2000/svg" width="64" height="64" viewBox="0 0 64 64">
    <g fill="none" fill-rule="evenodd">
        <path fill="#FAFAFA" d="M-584-296H856v800H-584z"/>
        <g>
            <circle cx="32" cy="32" r="32" fill="#55ACEE"/>
            <path fill="#FFF" d="M46.658 19.76c-.903.58-2.977 1.42-4 1.42v.002a6.413 6.413 0 0 0-10.886 5.862c-4.804-.127-10.058-2.535-13.221-6.655-1.945 3.365-.262 7.109 1.945 8.473-.756.057-2.146-.087-2.8-.726-.044 2.234 1.03 5.194 4.947 6.268-.755.406-2.09.29-2.67.203.203 1.886 2.844 4.351 5.732 4.351-1.03 1.191-4.902 3.35-9.248 2.663 2.952 1.796 6.391 2.836 10.032 2.836 10.347 0 18.382-8.385 17.95-18.73-.003-.01-.003-.022-.004-.035.001-.026.003-.053.003-.08 0-.033-.003-.063-.004-.094.942-.644 2.206-1.784 3.109-3.283-.524.288-2.095.866-3.556 1.009.938-.506 2.328-2.165 2.671-3.483"/>
        </g>
    </g>
</svg>
